<svg width="14" height="14" viewBox="0 0 14 14" fill="none" xmlns="http://www.w3.org/2000/svg">
<path d="M10.75 5.5C11.5456 5.5 12.3087 5.81607 12.8713 6.37868C13.4339 6.94129 13.75 7.70435 13.75 8.5V12.25C13.75 12.6478 13.592 13.0294 13.3107 13.3107C13.0294 13.592 12.6478 13.75 12.25 13.75H1.75C1.35218 13.75 0.970644 13.592 0.68934 13.3107C0.408035 13.0294 0.25 12.6478 0.25 12.25V8.5C0.25 7.70435 0.56607 6.94129 1.12868 6.37868C1.69129 5.81607 2.45435 5.5 3.25 5.5V3.25H4.75V5.5H6.25V3.25H7.75V5.5H9.25V3.25H10.75V5.5ZM3.25 7C2.85218 7 2.47064 7.15804 2.18934 7.43934C1.90804 7.72064 1.75 8.10218 1.75 8.5V9.25H12.25V8.5C12.25 8.10218 12.092 7.72064 11.8107 7.43934C11.5294 7.15804 11.1478 7 10.75 7H3.25ZM1.75 10.75V12.25H12.25V10.75H1.75ZM3.25 1C3.44891 1 3.63968 0.920982 3.78033 0.78033C3.92098 0.639678 4 0.448912 4 0.25C4.19891 0.25 4.38968 0.329018 4.53033 0.46967C4.67098 0.610322 4.75 0.801088 4.75 1V1.75C4.75 1.94891 4.67098 2.13968 4.53033 2.28033C4.38968 2.42098 4.19891 2.5 4 2.5C3.80109 2.5 3.61032 2.42098 3.46967 2.28033C3.32902 2.13968 3.25 1.94891 3.25 1.75V1ZM6.25 1C6.44891 1 6.63968 0.920982 6.78033 0.78033C6.92098 0.639678 7 0.448912 7 0.25C7.19891 0.25 7.38968 0.329018 7.53033 0.46967C7.67098 0.610322 7.75 0.801088 7.75 1V1.75C7.75 1.94891 7.67098 2.13968 7.53033 2.28033C7.38968 2.42098 7.19891 2.5 7 2.5C6.80109 2.5 6.61032 2.42098 6.46967 2.28033C6.32902 2.13968 6.25 1.94891 6.25 1.75V1ZM9.25 1C9.44891 1 9.63968 0.920982 9.78033 0.78033C9.92098 0.639678 10 0.448912 10 0.25C10.1989 0.25 10.3897 0.329018 10.5303 0.46967C10.671 0.610322 10.75 0.801088 10.75 1V1.75C10.75 1.94891 10.671 2.13968 10.5303 2.28033C10.3897 2.42098 10.1989 2.5 10 2.5C9.80109 2.5 9.61032 2.42098 9.46967 2.28033C9.32902 2.13968 9.25 1.94891 9.25 1.75V1Z" fill="#495560"/>
</svg>
